<svg xmlns="http://www.w3.org/2000/svg" xmlns:xlink="http://www.w3.org/1999/xlink" width="400" zoomAndPan="magnify" viewBox="0 0 300 74.999997" height="100" preserveAspectRatio="xMidYMid meet" version="1.2"><defs><clipPath id="73eac7ae7a"><path d="M 87.253906 31.691406 L 102.75 31.691406 L 102.75 57.292969 L 87.253906 57.292969 Z M 87.253906 31.691406 "/></clipPath><clipPath id="a80a8b3bee"><path d="M 87.253906 39.699219 L 87.253906 56.855469 C 87.253906 56.953125 87.292969 57.050781 87.367188 57.121094 C 87.4375 57.191406 87.53125 57.230469 87.632812 57.230469 L 102.371094 57.230469 C 102.472656 57.230469 102.566406 57.191406 102.640625 57.121094 C 102.710938 57.050781 102.75 56.953125 102.75 56.855469 L 102.75 39.699219 C 102.75 39.457031 102.652344 39.226562 102.484375 39.054688 L 95.269531 31.84375 C 95.199219 31.769531 95.101562 31.730469 95.003906 31.730469 C 94.902344 31.730469 94.804688 31.769531 94.734375 31.84375 L 87.523438 39.054688 C 87.351562 39.226562 87.253906 39.457031 87.253906 39.699219 Z M 87.253906 39.699219 "/></clipPath><clipPath id="3d864eb667"><path d="M 92 34 L 98 34 L 98 39 L 92 39 Z M 92 34 "/></clipPath><clipPath id="664dc4c6a4"><path d="M 92.878906 34.84375 L 96.988281 34.703125 L 97.128906 38.8125 L 93.019531 38.953125 Z M 92.878906 34.84375 "/></clipPath><clipPath id="e7b8f2d2d7"><path d="M 94.933594 34.773438 C 93.796875 34.8125 92.910156 35.761719 92.949219 36.898438 C 92.988281 38.03125 93.9375 38.921875 95.074219 38.882812 C 96.207031 38.84375 97.097656 37.890625 97.058594 36.757812 C 97.019531 35.621094 96.066406 34.734375 94.933594 34.773438 Z M 94.933594 34.773438 "/></clipPath><clipPath id="9a2a3640f6"><path d="M 175.105469 60.316406 L 190.601562 60.316406 L 190.601562 75 L 175.105469 75 Z M 175.105469 60.316406 "/></clipPath><clipPath id="60b5633c00"><path d="M 175.105469 68.328125 L 175.105469 85.484375 C 175.105469 85.582031 175.144531 85.679688 175.214844 85.75 C 175.289062 85.820312 175.382812 85.859375 175.484375 85.859375 L 190.222656 85.859375 C 190.324219 85.859375 190.417969 85.820312 190.488281 85.75 C 190.5625 85.679688 190.601562 85.582031 190.601562 85.484375 L 190.601562 68.328125 C 190.601562 68.085938 190.503906 67.855469 190.332031 67.683594 L 183.121094 60.472656 C 183.050781 60.398438 182.953125 60.359375 182.851562 60.359375 C 182.753906 60.359375 182.65625 60.398438 182.585938 60.472656 L 175.371094 67.683594 C 175.203125 67.855469 175.105469 68.085938 175.105469 68.328125 Z M 175.105469 68.328125 "/></clipPath><clipPath id="a9d4de2901"><path d="M 180 63 L 185 63 L 185 68 L 180 68 Z M 180 63 "/></clipPath><clipPath id="034aa74cec"><path d="M 180.730469 63.480469 L 184.835938 63.339844 L 184.976562 67.445312 L 180.871094 67.589844 Z M 180.730469 63.480469 "/></clipPath><clipPath id="f854a63444"><path d="M 182.785156 63.410156 C 181.648438 63.449219 180.761719 64.398438 180.800781 65.535156 C 180.839844 66.667969 181.789062 67.554688 182.925781 67.515625 C 184.058594 67.480469 184.945312 66.527344 184.90625 65.394531 C 184.867188 64.257812 183.917969 63.371094 182.785156 63.410156 Z M 182.785156 63.410156 "/></clipPath></defs><g id="a0618171c0"><g style="fill:#ffffff;fill-opacity:1;"><g transform="translate(12.86267, 56.997715)"><path style="stroke:none" d="M 18.515625 0.640625 C 15.253906 0.640625 12.046875 0.269531 8.890625 -0.46875 C 5.734375 -1.207031 3.203125 -2.175781 1.296875 -3.375 L 5.375 -12.703125 C 7.144531 -11.597656 9.25 -10.722656 11.6875 -10.078125 C 14.132812 -9.429688 16.550781 -9.109375 18.9375 -9.109375 C 21.144531 -9.109375 22.710938 -9.332031 23.640625 -9.78125 C 24.578125 -10.238281 25.046875 -10.898438 25.046875 -11.765625 C 25.046875 -12.628906 24.484375 -13.238281 23.359375 -13.59375 C 22.234375 -13.957031 20.453125 -14.304688 18.015625 -14.640625 C 14.898438 -15.023438 12.253906 -15.523438 10.078125 -16.140625 C 7.898438 -16.765625 6.019531 -17.910156 4.4375 -19.578125 C 2.863281 -21.253906 2.078125 -23.601562 2.078125 -26.625 C 2.078125 -29.101562 2.816406 -31.3125 4.296875 -33.25 C 5.785156 -35.1875 7.953125 -36.71875 10.796875 -37.84375 C 13.640625 -38.96875 17.046875 -39.53125 21.015625 -39.53125 C 23.835938 -39.53125 26.632812 -39.242188 29.40625 -38.671875 C 32.1875 -38.097656 34.507812 -37.285156 36.375 -36.234375 L 32.28125 -26.984375 C 28.84375 -28.890625 25.113281 -29.84375 21.09375 -29.84375 C 18.9375 -29.84375 17.359375 -29.59375 16.359375 -29.09375 C 15.359375 -28.59375 14.859375 -27.9375 14.859375 -27.125 C 14.859375 -26.21875 15.40625 -25.582031 16.5 -25.21875 C 17.601562 -24.863281 19.421875 -24.492188 21.953125 -24.109375 C 25.160156 -23.628906 27.816406 -23.078125 29.921875 -22.453125 C 32.023438 -21.835938 33.851562 -20.703125 35.40625 -19.046875 C 36.957031 -17.398438 37.734375 -15.09375 37.734375 -12.125 C 37.734375 -9.6875 36.992188 -7.5 35.515625 -5.5625 C 34.035156 -3.625 31.847656 -2.101562 28.953125 -1 C 26.054688 0.09375 22.578125 0.640625 18.515625 0.640625 Z M 18.515625 0.640625 "/></g></g><g style="fill:#ffffff;fill-opacity:1;"><g transform="translate(45.35944, 56.997715)"><path style="stroke:none" d="M 20.953125 -39.53125 C 27.410156 -39.53125 32.335938 -38.054688 35.734375 -35.109375 C 39.128906 -32.171875 40.828125 -27.664062 40.828125 -21.59375 L 40.828125 0 L 28.125 0 L 28.125 -5.015625 C 26.164062 -1.242188 22.335938 0.640625 16.640625 0.640625 C 13.628906 0.640625 11.023438 0.113281 8.828125 -0.9375 C 6.628906 -1.988281 4.96875 -3.410156 3.84375 -5.203125 C 2.71875 -6.992188 2.15625 -9.039062 2.15625 -11.34375 C 2.15625 -15.019531 3.566406 -17.875 6.390625 -19.90625 C 9.210938 -21.9375 13.5625 -22.953125 19.4375 -22.953125 L 27.1875 -22.953125 C 26.945312 -27.066406 24.195312 -29.125 18.9375 -29.125 C 17.070312 -29.125 15.179688 -28.828125 13.265625 -28.234375 C 11.359375 -27.640625 9.734375 -26.816406 8.390625 -25.765625 L 3.796875 -35.015625 C 5.953125 -36.453125 8.570312 -37.5625 11.65625 -38.34375 C 14.738281 -39.132812 17.835938 -39.53125 20.953125 -39.53125 Z M 20.453125 -7.96875 C 22.023438 -7.96875 23.410156 -8.347656 24.609375 -9.109375 C 25.804688 -9.878906 26.664062 -11.003906 27.1875 -12.484375 L 27.1875 -15.859375 L 21.3125 -15.859375 C 17.34375 -15.859375 15.359375 -14.539062 15.359375 -11.90625 C 15.359375 -10.707031 15.8125 -9.75 16.71875 -9.03125 C 17.625 -8.320312 18.867188 -7.96875 20.453125 -7.96875 Z M 20.453125 -7.96875 "/></g></g><g style="fill:#ffffff;fill-opacity:1;"><g transform="translate(83.667074, 56.997715)"><path style="stroke:none" d="M 4.375 -53.234375 L 18.015625 -53.234375 L 18.015625 0 L 4.375 0 Z M 4.375 -53.234375 "/></g></g><g style="fill:#ffffff;fill-opacity:1;"><g transform="translate(99.376914, 56.997715)"><path style="stroke:none" d="M 44.125 -19.375 C 44.125 -19.28125 44.050781 -18.15625 43.90625 -16 L 15.640625 -16 C 16.210938 -13.988281 17.320312 -12.445312 18.96875 -11.375 C 20.625 -10.300781 22.695312 -9.765625 25.1875 -9.765625 C 27.050781 -9.765625 28.664062 -10.023438 30.03125 -10.546875 C 31.394531 -11.078125 32.769531 -11.9375 34.15625 -13.125 L 41.328125 -5.671875 C 37.546875 -1.460938 32.019531 0.640625 24.75 0.640625 C 20.207031 0.640625 16.210938 -0.21875 12.765625 -1.9375 C 9.328125 -3.65625 6.660156 -6.046875 4.765625 -9.109375 C 2.878906 -12.171875 1.9375 -15.640625 1.9375 -19.515625 C 1.9375 -23.335938 2.859375 -26.769531 4.703125 -29.8125 C 6.546875 -32.851562 9.09375 -35.234375 12.34375 -36.953125 C 15.59375 -38.671875 19.25 -39.53125 23.3125 -39.53125 C 27.1875 -39.53125 30.703125 -38.726562 33.859375 -37.125 C 37.015625 -35.53125 39.515625 -33.210938 41.359375 -30.171875 C 43.203125 -27.128906 44.125 -23.53125 44.125 -19.375 Z M 23.390625 -29.84375 C 21.285156 -29.84375 19.523438 -29.242188 18.109375 -28.046875 C 16.703125 -26.859375 15.804688 -25.234375 15.421875 -23.171875 L 31.359375 -23.171875 C 30.972656 -25.234375 30.070312 -26.859375 28.65625 -28.046875 C 27.25 -29.242188 25.492188 -29.84375 23.390625 -29.84375 Z M 23.390625 -29.84375 "/></g></g><g style="fill:#ffffff;fill-opacity:1;"><g transform="translate(138.6889, 56.997715)"><path style="stroke:none" d="M 18.515625 0.640625 C 15.253906 0.640625 12.046875 0.269531 8.890625 -0.46875 C 5.734375 -1.207031 3.203125 -2.175781 1.296875 -3.375 L 5.375 -12.703125 C 7.144531 -11.597656 9.25 -10.722656 11.6875 -10.078125 C 14.132812 -9.429688 16.550781 -9.109375 18.9375 -9.109375 C 21.144531 -9.109375 22.710938 -9.332031 23.640625 -9.78125 C 24.578125 -10.238281 25.046875 -10.898438 25.046875 -11.765625 C 25.046875 -12.628906 24.484375 -13.238281 23.359375 -13.59375 C 22.234375 -13.957031 20.453125 -14.304688 18.015625 -14.640625 C 14.898438 -15.023438 12.253906 -15.523438 10.078125 -16.140625 C 7.898438 -16.765625 6.019531 -17.910156 4.4375 -19.578125 C 2.863281 -21.253906 2.078125 -23.601562 2.078125 -26.625 C 2.078125 -29.101562 2.816406 -31.3125 4.296875 -33.25 C 5.785156 -35.1875 7.953125 -36.71875 10.796875 -37.84375 C 13.640625 -38.96875 17.046875 -39.53125 21.015625 -39.53125 C 23.835938 -39.53125 26.632812 -39.242188 29.40625 -38.671875 C 32.1875 -38.097656 34.507812 -37.285156 36.375 -36.234375 L 32.28125 -26.984375 C 28.84375 -28.890625 25.113281 -29.84375 21.09375 -29.84375 C 18.9375 -29.84375 17.359375 -29.59375 16.359375 -29.09375 C 15.359375 -28.59375 14.859375 -27.9375 14.859375 -27.125 C 14.859375 -26.21875 15.40625 -25.582031 16.5 -25.21875 C 17.601562 -24.863281 19.421875 -24.492188 21.953125 -24.109375 C 25.160156 -23.628906 27.816406 -23.078125 29.921875 -22.453125 C 32.023438 -21.835938 33.851562 -20.703125 35.40625 -19.046875 C 36.957031 -17.398438 37.734375 -15.09375 37.734375 -12.125 C 37.734375 -9.6875 36.992188 -7.5 35.515625 -5.5625 C 34.035156 -3.625 31.847656 -2.101562 28.953125 -1 C 26.054688 0.09375 22.578125 0.640625 18.515625 0.640625 Z M 18.515625 0.640625 "/></g></g><g style="fill:#ffffff;fill-opacity:1;"><g transform="translate(171.185671, 56.997715)"><path style="stroke:none" d="M 28.84375 -39.53125 C 32.382812 -39.53125 35.597656 -38.703125 38.484375 -37.046875 C 41.378906 -35.398438 43.675781 -33.054688 45.375 -30.015625 C 47.070312 -26.984375 47.921875 -23.457031 47.921875 -19.4375 C 47.921875 -15.425781 47.070312 -11.898438 45.375 -8.859375 C 43.675781 -5.828125 41.378906 -3.484375 38.484375 -1.828125 C 35.597656 -0.179688 32.382812 0.640625 28.84375 0.640625 C 24.300781 0.640625 20.691406 -0.71875 18.015625 -3.4375 L 18.015625 13.921875 L 4.375 13.921875 L 4.375 -38.890625 L 17.359375 -38.890625 L 17.359375 -35.015625 C 19.898438 -38.023438 23.726562 -39.53125 28.84375 -39.53125 Z M 25.96875 -10.1875 C 28.363281 -10.1875 30.328125 -11.007812 31.859375 -12.65625 C 33.390625 -14.3125 34.15625 -16.570312 34.15625 -19.4375 C 34.15625 -22.3125 33.390625 -24.570312 31.859375 -26.21875 C 30.328125 -27.875 28.363281 -28.703125 25.96875 -28.703125 C 23.582031 -28.703125 21.625 -27.875 20.09375 -26.21875 C 18.5625 -24.570312 17.796875 -22.3125 17.796875 -19.4375 C 17.796875 -16.570312 18.5625 -14.3125 20.09375 -12.65625 C 21.625 -11.007812 23.582031 -10.1875 25.96875 -10.1875 Z M 25.96875 -10.1875 "/></g></g><g style="fill:#ffffff;fill-opacity:1;"><g transform="translate(214.299816, 56.997715)"><path style="stroke:none" d="M 17.359375 -34.21875 C 18.742188 -35.988281 20.546875 -37.316406 22.765625 -38.203125 C 24.992188 -39.085938 27.546875 -39.53125 30.421875 -39.53125 L 30.421875 -27.265625 C 29.179688 -27.410156 28.15625 -27.484375 27.34375 -27.484375 C 24.414062 -27.484375 22.128906 -26.691406 20.484375 -25.109375 C 18.835938 -23.535156 18.015625 -21.117188 18.015625 -17.859375 L 18.015625 0 L 4.375 0 L 4.375 -38.890625 L 17.359375 -38.890625 Z M 17.359375 -34.21875 "/></g></g><g style="fill:#ffffff;fill-opacity:1;"><g transform="translate(239.335743, 56.997715)"><path style="stroke:none" d="M 23.890625 0.640625 C 19.734375 0.640625 15.976562 -0.21875 12.625 -1.9375 C 9.28125 -3.65625 6.660156 -6.046875 4.765625 -9.109375 C 2.878906 -12.171875 1.9375 -15.640625 1.9375 -19.515625 C 1.9375 -23.335938 2.878906 -26.78125 4.765625 -29.84375 C 6.660156 -32.90625 9.269531 -35.285156 12.59375 -36.984375 C 15.914062 -38.679688 19.679688 -39.53125 23.890625 -39.53125 C 28.097656 -39.53125 31.875 -38.679688 35.21875 -36.984375 C 38.570312 -35.285156 41.179688 -32.914062 43.046875 -29.875 C 44.910156 -26.84375 45.84375 -23.390625 45.84375 -19.515625 C 45.84375 -15.640625 44.910156 -12.171875 43.046875 -9.109375 C 41.179688 -6.046875 38.570312 -3.65625 35.21875 -1.9375 C 31.875 -0.21875 28.097656 0.640625 23.890625 0.640625 Z M 23.890625 -10.1875 C 26.285156 -10.1875 28.25 -11.007812 29.78125 -12.65625 C 31.3125 -14.3125 32.078125 -16.597656 32.078125 -19.515625 C 32.078125 -22.390625 31.3125 -24.640625 29.78125 -26.265625 C 28.25 -27.890625 26.285156 -28.703125 23.890625 -28.703125 C 21.503906 -28.703125 19.546875 -27.890625 18.015625 -26.265625 C 16.484375 -24.640625 15.71875 -22.390625 15.71875 -19.515625 C 15.71875 -16.597656 16.484375 -14.3125 18.015625 -12.65625 C 19.546875 -11.007812 21.503906 -10.1875 23.890625 -10.1875 Z M 23.890625 -10.1875 "/></g></g><g clip-rule="nonzero" clip-path="url(#73eac7ae7a)"><g clip-rule="nonzero" clip-path="url(#a80a8b3bee)"><path style=" stroke:none;fill-rule:nonzero;fill:#18181b;fill-opacity:1;" d="M 87.253906 57.230469 L 87.253906 31.570312 L 102.75 31.570312 L 102.75 57.230469 Z M 87.253906 57.230469 "/></g></g><g clip-rule="nonzero" clip-path="url(#3d864eb667)"><g clip-rule="nonzero" clip-path="url(#664dc4c6a4)"><g clip-rule="nonzero" clip-path="url(#e7b8f2d2d7)"><path style=" stroke:none;fill-rule:nonzero;fill:#ffffff;fill-opacity:1;" d="M 92.878906 34.84375 L 96.988281 34.703125 L 97.128906 38.8125 L 93.019531 38.953125 Z M 92.878906 34.84375 "/></g></g></g><g clip-rule="nonzero" clip-path="url(#9a2a3640f6)"><g clip-rule="nonzero" clip-path="url(#60b5633c00)"><path style=" stroke:none;fill-rule:nonzero;fill:#18181b;fill-opacity:1;" d="M 175.105469 85.859375 L 175.105469 60.195312 L 190.601562 60.195312 L 190.601562 85.859375 Z M 175.105469 85.859375 "/></g></g><g clip-rule="nonzero" clip-path="url(#a9d4de2901)"><g clip-rule="nonzero" clip-path="url(#034aa74cec)"><g clip-rule="nonzero" clip-path="url(#f854a63444)"><path style=" stroke:none;fill-rule:nonzero;fill:#ffffff;fill-opacity:1;" d="M 180.730469 63.480469 L 184.835938 63.339844 L 184.976562 67.445312 L 180.871094 67.589844 Z M 180.730469 63.480469 "/></g></g></g></g></svg>