<svg xmlns="http://www.w3.org/2000/svg" xmlns:xlink="http://www.w3.org/1999/xlink" width="500" zoomAndPan="magnify" viewBox="0 0 375 374.999991" height="500" preserveAspectRatio="xMidYMid meet" version="1.2"><defs><clipPath id="5297fcd3cb"><path d="M 121.199219 194.910156 L 139.320312 194.910156 L 139.320312 224.355469 L 121.199219 224.355469 Z M 121.199219 194.910156 "/></clipPath><clipPath id="8fd10014e3"><path d="M 121.199219 204.914062 L 121.199219 222.855469 C 121.199219 223.683594 121.871094 224.355469 122.699219 224.355469 L 137.820312 224.355469 C 138.648438 224.355469 139.320312 223.683594 139.320312 222.855469 L 139.320312 204.914062 C 139.320312 203.953125 138.9375 203.03125 138.261719 202.351562 L 131.320312 195.414062 C 130.734375 194.828125 129.785156 194.828125 129.199219 195.414062 L 122.261719 202.351562 C 121.582031 203.03125 121.199219 203.953125 121.199219 204.914062 Z M 121.199219 204.914062 "/></clipPath><clipPath id="9aa171265c"><path d="M 127 200 L 133 200 L 133 205 L 127 205 Z M 127 200 "/></clipPath><clipPath id="7f3c60120b"><path d="M 127.777344 200.160156 L 132.582031 199.992188 L 132.746094 204.796875 L 127.941406 204.964844 Z M 127.777344 200.160156 "/></clipPath><clipPath id="326728038d"><path d="M 130.179688 200.078125 C 128.851562 200.121094 127.8125 201.234375 127.859375 202.5625 C 127.90625 203.886719 129.015625 204.925781 130.34375 204.878906 C 131.671875 204.835938 132.707031 203.722656 132.664062 202.394531 C 132.617188 201.070312 131.503906 200.03125 130.179688 200.078125 Z M 130.179688 200.078125 "/></clipPath><clipPath id="2f13beedb7"><path d="M 223.816406 227.914062 L 241.9375 227.914062 L 241.9375 257.359375 L 223.816406 257.359375 Z M 223.816406 227.914062 "/></clipPath><clipPath id="bdadcb940e"><path d="M 223.816406 237.914062 L 223.816406 255.859375 C 223.816406 256.6875 224.488281 257.359375 225.316406 257.359375 L 240.4375 257.359375 C 241.265625 257.359375 241.9375 256.6875 241.9375 255.859375 L 241.9375 237.914062 C 241.9375 236.953125 241.554688 236.035156 240.875 235.355469 L 233.9375 228.417969 C 233.351562 227.832031 232.402344 227.832031 231.816406 228.417969 L 224.875 235.355469 C 224.199219 236.035156 223.816406 236.953125 223.816406 237.914062 Z M 223.816406 237.914062 "/></clipPath><clipPath id="363864d339"><path d="M 230 231 L 236 231 L 236 236 L 230 236 Z M 230 231 "/></clipPath><clipPath id="310d8e7923"><path d="M 230.390625 231.1875 L 235.195312 231.019531 L 235.359375 235.824219 L 230.558594 235.988281 Z M 230.390625 231.1875 "/></clipPath><clipPath id="27c5debb2e"><path d="M 232.792969 231.105469 C 231.46875 231.148438 230.429688 232.261719 230.472656 233.589844 C 230.519531 234.914062 231.632812 235.953125 232.957031 235.90625 C 234.285156 235.863281 235.324219 234.75 235.277344 233.421875 C 235.234375 232.097656 234.121094 231.058594 232.792969 231.105469 Z M 232.792969 231.105469 "/></clipPath></defs><g id="98e32e8d22"><g style="fill:#000000;fill-opacity:1;"><g transform="translate(34.081924, 223.605278)"><path style="stroke:none" d="M 21.640625 0.75 C 17.835938 0.75 14.085938 0.316406 10.390625 -0.546875 C 6.703125 -1.410156 3.742188 -2.539062 1.515625 -3.9375 L 6.296875 -14.84375 C 8.359375 -13.5625 10.816406 -12.539062 13.671875 -11.78125 C 16.523438 -11.03125 19.351562 -10.65625 22.15625 -10.65625 C 24.726562 -10.65625 26.554688 -10.921875 27.640625 -11.453125 C 28.734375 -11.984375 29.28125 -12.753906 29.28125 -13.765625 C 29.28125 -14.765625 28.625 -15.472656 27.3125 -15.890625 C 26 -16.316406 23.914062 -16.722656 21.0625 -17.109375 C 17.425781 -17.554688 14.332031 -18.144531 11.78125 -18.875 C 9.238281 -19.601562 7.046875 -20.945312 5.203125 -22.90625 C 3.359375 -24.863281 2.4375 -27.601562 2.4375 -31.125 C 2.4375 -34.039062 3.300781 -36.628906 5.03125 -38.890625 C 6.769531 -41.148438 9.300781 -42.9375 12.625 -44.25 C 15.957031 -45.570312 19.941406 -46.234375 24.578125 -46.234375 C 27.878906 -46.234375 31.148438 -45.894531 34.390625 -45.21875 C 37.640625 -44.550781 40.359375 -43.601562 42.546875 -42.375 L 37.75 -31.546875 C 33.726562 -33.785156 29.367188 -34.90625 24.671875 -34.90625 C 22.148438 -34.90625 20.300781 -34.609375 19.125 -34.015625 C 17.957031 -33.429688 17.375 -32.664062 17.375 -31.71875 C 17.375 -30.65625 18.015625 -29.910156 19.296875 -29.484375 C 20.585938 -29.066406 22.710938 -28.632812 25.671875 -28.1875 C 29.421875 -27.632812 32.523438 -26.992188 34.984375 -26.265625 C 37.453125 -25.535156 39.59375 -24.203125 41.40625 -22.265625 C 43.226562 -20.335938 44.140625 -17.644531 44.140625 -14.1875 C 44.140625 -11.332031 43.269531 -8.769531 41.53125 -6.5 C 39.800781 -4.238281 37.242188 -2.460938 33.859375 -1.171875 C 30.472656 0.109375 26.398438 0.75 21.640625 0.75 Z M 21.640625 0.75 "/></g></g><g style="fill:#000000;fill-opacity:1;"><g transform="translate(72.084947, 223.605278)"><path style="stroke:none" d="M 24.5 -46.234375 C 32.050781 -46.234375 37.8125 -44.507812 41.78125 -41.0625 C 45.757812 -37.625 47.75 -32.351562 47.75 -25.25 L 47.75 0 L 32.890625 0 L 32.890625 -5.875 C 30.597656 -1.457031 26.125 0.75 19.46875 0.75 C 15.945312 0.75 12.894531 0.132812 10.3125 -1.09375 C 7.738281 -2.320312 5.796875 -3.984375 4.484375 -6.078125 C 3.171875 -8.179688 2.515625 -10.570312 2.515625 -13.25 C 2.515625 -17.5625 4.164062 -20.90625 7.46875 -23.28125 C 10.769531 -25.65625 15.859375 -26.84375 22.734375 -26.84375 L 31.796875 -26.84375 C 31.515625 -31.65625 28.300781 -34.0625 22.15625 -34.0625 C 19.96875 -34.0625 17.753906 -33.710938 15.515625 -33.015625 C 13.285156 -32.316406 11.382812 -31.351562 9.8125 -30.125 L 4.453125 -40.953125 C 6.960938 -42.628906 10.019531 -43.925781 13.625 -44.84375 C 17.238281 -45.769531 20.863281 -46.234375 24.5 -46.234375 Z M 23.90625 -9.3125 C 25.757812 -9.3125 27.382812 -9.757812 28.78125 -10.65625 C 30.175781 -11.550781 31.179688 -12.863281 31.796875 -14.59375 L 31.796875 -18.546875 L 24.921875 -18.546875 C 20.273438 -18.546875 17.953125 -17.003906 17.953125 -13.921875 C 17.953125 -12.523438 18.484375 -11.40625 19.546875 -10.5625 C 20.609375 -9.726562 22.0625 -9.3125 23.90625 -9.3125 Z M 23.90625 -9.3125 "/></g></g><g style="fill:#000000;fill-opacity:1;"><g transform="translate(116.883425, 223.605278)"><path style="stroke:none" d="M 5.125 -62.265625 L 21.0625 -62.265625 L 21.0625 0 L 5.125 0 Z M 5.125 -62.265625 "/></g></g><g style="fill:#000000;fill-opacity:1;"><g transform="translate(135.255139, 223.605278)"><path style="stroke:none" d="M 51.609375 -22.65625 C 51.609375 -22.539062 51.519531 -21.226562 51.34375 -18.71875 L 18.296875 -18.71875 C 18.960938 -16.363281 20.257812 -14.554688 22.1875 -13.296875 C 24.125 -12.035156 26.546875 -11.40625 29.453125 -11.40625 C 31.628906 -11.40625 33.515625 -11.710938 35.109375 -12.328125 C 36.703125 -12.941406 38.3125 -13.953125 39.9375 -15.359375 L 48.328125 -6.625 C 43.910156 -1.707031 37.453125 0.75 28.953125 0.75 C 23.628906 0.75 18.953125 -0.253906 14.921875 -2.265625 C 10.898438 -4.273438 7.785156 -7.070312 5.578125 -10.65625 C 3.367188 -14.238281 2.265625 -18.296875 2.265625 -22.828125 C 2.265625 -27.296875 3.335938 -31.304688 5.484375 -34.859375 C 7.640625 -38.410156 10.617188 -41.191406 14.421875 -43.203125 C 18.234375 -45.222656 22.515625 -46.234375 27.265625 -46.234375 C 31.796875 -46.234375 35.90625 -45.296875 39.59375 -43.421875 C 43.289062 -41.546875 46.21875 -38.832031 48.375 -35.28125 C 50.53125 -31.726562 51.609375 -27.519531 51.609375 -22.65625 Z M 27.359375 -34.90625 C 24.890625 -34.90625 22.832031 -34.203125 21.1875 -32.796875 C 19.539062 -31.398438 18.492188 -29.503906 18.046875 -27.109375 L 36.671875 -27.109375 C 36.222656 -29.503906 35.171875 -31.398438 33.515625 -32.796875 C 31.867188 -34.203125 29.816406 -34.90625 27.359375 -34.90625 Z M 27.359375 -34.90625 "/></g></g><g style="fill:#000000;fill-opacity:1;"><g transform="translate(181.228147, 223.605278)"><path style="stroke:none" d="M 21.640625 0.75 C 17.835938 0.75 14.085938 0.316406 10.390625 -0.546875 C 6.703125 -1.410156 3.742188 -2.539062 1.515625 -3.9375 L 6.296875 -14.84375 C 8.359375 -13.5625 10.816406 -12.539062 13.671875 -11.78125 C 16.523438 -11.03125 19.351562 -10.65625 22.15625 -10.65625 C 24.726562 -10.65625 26.554688 -10.921875 27.640625 -11.453125 C 28.734375 -11.984375 29.28125 -12.753906 29.28125 -13.765625 C 29.28125 -14.765625 28.625 -15.472656 27.3125 -15.890625 C 26 -16.316406 23.914062 -16.722656 21.0625 -17.109375 C 17.425781 -17.554688 14.332031 -18.144531 11.78125 -18.875 C 9.238281 -19.601562 7.046875 -20.945312 5.203125 -22.90625 C 3.359375 -24.863281 2.4375 -27.601562 2.4375 -31.125 C 2.4375 -34.039062 3.300781 -36.628906 5.03125 -38.890625 C 6.769531 -41.148438 9.300781 -42.9375 12.625 -44.25 C 15.957031 -45.570312 19.941406 -46.234375 24.578125 -46.234375 C 27.878906 -46.234375 31.148438 -45.894531 34.390625 -45.21875 C 37.640625 -44.550781 40.359375 -43.601562 42.546875 -42.375 L 37.75 -31.546875 C 33.726562 -33.785156 29.367188 -34.90625 24.671875 -34.90625 C 22.148438 -34.90625 20.300781 -34.609375 19.125 -34.015625 C 17.957031 -33.429688 17.375 -32.664062 17.375 -31.71875 C 17.375 -30.65625 18.015625 -29.910156 19.296875 -29.484375 C 20.585938 -29.066406 22.710938 -28.632812 25.671875 -28.1875 C 29.421875 -27.632812 32.523438 -26.992188 34.984375 -26.265625 C 37.453125 -25.535156 39.59375 -24.203125 41.40625 -22.265625 C 43.226562 -20.335938 44.140625 -17.644531 44.140625 -14.1875 C 44.140625 -11.332031 43.269531 -8.769531 41.53125 -6.5 C 39.800781 -4.238281 37.242188 -2.460938 33.859375 -1.171875 C 30.472656 0.109375 26.398438 0.75 21.640625 0.75 Z M 21.640625 0.75 "/></g></g><g style="fill:#000000;fill-opacity:1;"><g transform="translate(219.23117, 223.605278)"><path style="stroke:none" d="M 33.734375 -46.234375 C 37.867188 -46.234375 41.628906 -45.265625 45.015625 -43.328125 C 48.398438 -41.398438 51.082031 -38.660156 53.0625 -35.109375 C 55.050781 -31.554688 56.046875 -27.429688 56.046875 -22.734375 C 56.046875 -18.035156 55.050781 -13.910156 53.0625 -10.359375 C 51.082031 -6.804688 48.398438 -4.066406 45.015625 -2.140625 C 41.628906 -0.210938 37.867188 0.75 33.734375 0.75 C 28.421875 0.75 24.195312 -0.84375 21.0625 -4.03125 L 21.0625 16.28125 L 5.125 16.28125 L 5.125 -45.484375 L 20.3125 -45.484375 L 20.3125 -40.953125 C 23.269531 -44.472656 27.742188 -46.234375 33.734375 -46.234375 Z M 30.375 -11.921875 C 33.164062 -11.921875 35.457031 -12.882812 37.25 -14.8125 C 39.039062 -16.738281 39.9375 -19.378906 39.9375 -22.734375 C 39.9375 -26.085938 39.039062 -28.726562 37.25 -30.65625 C 35.457031 -32.59375 33.164062 -33.5625 30.375 -33.5625 C 27.570312 -33.5625 25.273438 -32.59375 23.484375 -30.65625 C 21.703125 -28.726562 20.8125 -26.085938 20.8125 -22.734375 C 20.8125 -19.378906 21.703125 -16.738281 23.484375 -14.8125 C 25.273438 -12.882812 27.570312 -11.921875 30.375 -11.921875 Z M 30.375 -11.921875 "/></g></g><g style="fill:#000000;fill-opacity:1;"><g transform="translate(269.650573, 223.605278)"><path style="stroke:none" d="M 20.3125 -40.015625 C 21.925781 -42.085938 24.035156 -43.640625 26.640625 -44.671875 C 29.242188 -45.710938 32.222656 -46.234375 35.578125 -46.234375 L 35.578125 -31.890625 C 34.117188 -32.054688 32.914062 -32.140625 31.96875 -32.140625 C 28.550781 -32.140625 25.878906 -31.210938 23.953125 -29.359375 C 22.023438 -27.515625 21.0625 -24.691406 21.0625 -20.890625 L 21.0625 0 L 5.125 0 L 5.125 -45.484375 L 20.3125 -45.484375 Z M 20.3125 -40.015625 "/></g></g><g style="fill:#000000;fill-opacity:1;"><g transform="translate(298.928587, 223.605278)"><path style="stroke:none" d="M 27.9375 0.75 C 23.070312 0.75 18.679688 -0.253906 14.765625 -2.265625 C 10.847656 -4.273438 7.785156 -7.070312 5.578125 -10.65625 C 3.367188 -14.238281 2.265625 -18.296875 2.265625 -22.828125 C 2.265625 -27.296875 3.367188 -31.320312 5.578125 -34.90625 C 7.785156 -38.488281 10.832031 -41.269531 14.71875 -43.25 C 18.613281 -45.238281 23.019531 -46.234375 27.9375 -46.234375 C 32.863281 -46.234375 37.285156 -45.238281 41.203125 -43.25 C 45.117188 -41.269531 48.164062 -38.503906 50.34375 -34.953125 C 52.519531 -31.398438 53.609375 -27.359375 53.609375 -22.828125 C 53.609375 -18.296875 52.519531 -14.238281 50.34375 -10.65625 C 48.164062 -7.070312 45.117188 -4.273438 41.203125 -2.265625 C 37.285156 -0.253906 32.863281 0.75 27.9375 0.75 Z M 27.9375 -11.921875 C 30.738281 -11.921875 33.03125 -12.882812 34.8125 -14.8125 C 36.601562 -16.738281 37.5 -19.410156 37.5 -22.828125 C 37.5 -26.179688 36.601562 -28.804688 34.8125 -30.703125 C 33.03125 -32.609375 30.738281 -33.5625 27.9375 -33.5625 C 25.144531 -33.5625 22.851562 -32.609375 21.0625 -30.703125 C 19.269531 -28.804688 18.375 -26.179688 18.375 -22.828125 C 18.375 -19.410156 19.269531 -16.738281 21.0625 -14.8125 C 22.851562 -12.882812 25.144531 -11.921875 27.9375 -11.921875 Z M 27.9375 -11.921875 "/></g></g><g clip-rule="nonzero" clip-path="url(#5297fcd3cb)"><g clip-rule="nonzero" clip-path="url(#8fd10014e3)"><path style=" stroke:none;fill-rule:nonzero;fill:#ffffff;fill-opacity:1;" d="M 121.199219 224.355469 L 121.199219 194.34375 L 139.320312 194.34375 L 139.320312 224.355469 Z M 121.199219 224.355469 "/></g></g><g clip-rule="nonzero" clip-path="url(#9aa171265c)"><g clip-rule="nonzero" clip-path="url(#7f3c60120b)"><g clip-rule="nonzero" clip-path="url(#326728038d)"><path style=" stroke:none;fill-rule:nonzero;fill:#000000;fill-opacity:1;" d="M 127.777344 200.160156 L 132.582031 199.992188 L 132.746094 204.796875 L 127.941406 204.964844 Z M 127.777344 200.160156 "/></g></g></g><g clip-rule="nonzero" clip-path="url(#2f13beedb7)"><g clip-rule="nonzero" clip-path="url(#bdadcb940e)"><path style=" stroke:none;fill-rule:nonzero;fill:#ffffff;fill-opacity:1;" d="M 223.816406 257.359375 L 223.816406 227.347656 L 241.9375 227.347656 L 241.9375 257.359375 Z M 223.816406 257.359375 "/></g></g><g clip-rule="nonzero" clip-path="url(#363864d339)"><g clip-rule="nonzero" clip-path="url(#310d8e7923)"><g clip-rule="nonzero" clip-path="url(#27c5debb2e)"><path style=" stroke:none;fill-rule:nonzero;fill:#000000;fill-opacity:1;" d="M 230.390625 231.1875 L 235.195312 231.019531 L 235.359375 235.824219 L 230.558594 235.988281 Z M 230.390625 231.1875 "/></g></g></g></g></svg>